HIERARCHY
ROOT Hips
{
 OFFSET 0.000000 0.000000 0.000000
 CHANNELS 6 Xposition Yposition Zposition Yrotation Xrotation Zrotation
 JOINT Chest
 {
  OFFSET 0.000000 9.585900 0.002600
  CHANNELS 3 Yrotation Xrotation Zrotation
  JOINT Chest2
  {
   OFFSET 0.000000 9.601200 -0.005300
   CHANNELS 3 Yrotation Xrotation Zrotation
   JOINT Chest3
   {
    OFFSET 0.000000 9.561800 0.000000
    CHANNELS 3 Yrotation Xrotation Zrotation
    JOINT Chest4
    {
     OFFSET 0.000000 9.552100 0.000000
     CHANNELS 3 Yrotation Xrotation Zrotation
     JOINT Neck
     {
      OFFSET 0.000000 14.453000 0.000000
      CHANNELS 3 Yrotation Xrotation Zrotation
      JOINT Head
      {
       OFFSET 0.000000 8.936500 -0.011300
       CHANNELS 3 Yrotation Xrotation Zrotation
       End Site
       {
        OFFSET 0.000000 17.073600 -0.006000
       }
      }
     }
     JOINT RightCollar
     {
      OFFSET -2.921100 9.558500 0.000000
      CHANNELS 3 Yrotation Xrotation Zrotation
      JOINT RightShoulder
      {
       OFFSET -13.519700 0.000000 0.000000
       CHANNELS 3 Yrotation Xrotation Zrotation
       JOINT RightElbow
       {
        OFFSET 0.000000 -29.696600 0.000000
        CHANNELS 3 Yrotation Xrotation Zrotation
        JOINT RightWrist
        {
         OFFSET 0.000000 -24.004700 0.000000
         CHANNELS 3 Yrotation Xrotation Zrotation
         End Site
         {
          OFFSET 0.000000 -17.728500 0.000000
         }
        }
       }
      }
     }
     JOINT LeftCollar
     {
      OFFSET 2.921100 9.558500 0.000000
      CHANNELS 3 Yrotation Xrotation Zrotation
      JOINT LeftShoulder
      {
       OFFSET 13.519700 0.000000 0.000000
       CHANNELS 3 Yrotation Xrotation Zrotation
       JOINT LeftElbow
       {
        OFFSET 0.000000 -29.696600 0.000000
        CHANNELS 3 Yrotation Xrotation Zrotation
        JOINT LeftWrist
        {
         OFFSET 0.000000 -24.004700 0.000000
         CHANNELS 3 Yrotation Xrotation Zrotation
         End Site
         {
          OFFSET 0.000000 -17.728500 0.000000
         }
        }
       }
      }
     }
    }
   }
  }
 }
 JOINT RightHip
 {
  OFFSET -7.771700 -0.012900 -0.001300
  CHANNELS 3 Yrotation Xrotation Zrotation
  JOINT RightKnee
  {
   OFFSET 0.000000 -40.869800 0.001200
   CHANNELS 3 Yrotation Xrotation Zrotation
   JOINT RightAnkle
   {
    OFFSET 0.000000 -39.717900 0.002100
    CHANNELS 3 Yrotation Xrotation Zrotation
    JOINT RightToe
    {
     OFFSET 0.000000 -4.965400 11.033500
     CHANNELS 3 Yrotation Xrotation Zrotation
     End Site
     {
      OFFSET 0.000000 -1.423100 5.872300
     }
    }
   }
  }
 }
 JOINT LeftHip
 {
  OFFSET 7.771700 -0.012900 -0.001300
  CHANNELS 3 Yrotation Xrotation Zrotation
  JOINT LeftKnee
  {
   OFFSET 0.000000 -40.869800 0.001200
   CHANNELS 3 Yrotation Xrotation Zrotation
   JOINT LeftAnkle
   {
    OFFSET 0.000000 -39.717900 0.002100
    CHANNELS 3 Yrotation Xrotation Zrotation
    JOINT LeftToe
    {
     OFFSET 0.000000 -4.965400 11.033500
     CHANNELS 3 Yrotation Xrotation Zrotation
     End Site
     {
      OFFSET 0.000000 -1.423100 5.872300
     }
    }
   }
  }
 }
}
MOTION
Frames: 11
Frame Time: 0.008333
0.000000 85.388000 0.000000 0.000000 -5.767877 0.000000 0.000000 11.653817 0.000000 0.000000 -5.885947 0.000000 0.000000 -0.000000 0.000000 0.000000 -0.000000 0.000000 0.000000 12.528835 0.000000 0.000000 0.711642 0.000000 0.000000 -0.000000 0.000000 0.000000 0.000000 -90.000000 0.000000 -2.309062 0.000000 0.000000 2.309062 0.000000 0.000000 -0.000000 0.000000 0.000000 -0.000000 90.000000 0.000000 -2.309062 0.000000 0.000000 2.309062 0.000000 0.000000 8.520406 0.000000 0.000000 1.905762 0.000000 -0.000000 -4.658285 0.000000 0.000000 -0.000000 0.000000 0.000000 8.520406 0.000000 0.000000 1.905762 0.000000 -0.000000 -4.658285 0.000000 0.000000 -0.000000 0.000000
-19.091645 57.810121 71.860705 170.668241 -32.737549 -0.715444 4.474909 18.151580 7.075795 0.415259 2.256389 0.581397 0.713770 3.725998 0.962134 3.540720 15.996546 4.628912 0.029278 16.945084 -5.199081 1.830557 -4.161908 -9.626108 3.495004 -3.873117 -1.349208 13.129970 -17.520530 -14.969596 -67.112900 -85.552080 101.227163 14.060579 -6.665818 -33.086890 -5.355485 -1.507419 -3.134307 14.660117 -6.614315 -1.868135 170.274735 -63.734016 166.207161 -12.373175 8.172125 0.477184 12.498661 -39.046683 -2.652349 -5.936411 67.173591 -5.206620 4.758954 6.743298 6.438533 -0.090857 0.174670 -0.019555 -5.106323 -45.172267 5.806531 29.623703 58.718739 28.519884 -9.987893 43.084613 3.634882 0.836443 -22.776409 -8.116096
-19.117957 57.810679 71.860925 170.688992 -32.764953 -0.573534 4.379052 18.174506 6.915008 0.380163 2.231565 0.589317 0.756389 3.754355 0.948935 3.445240 15.931044 4.649173 0.102576 16.935474 -5.238998 1.980041 -4.171212 -9.725362 3.550533 -3.842401 -1.391146 13.065922 -17.404037 -14.961627 -67.908418 -85.547153 102.113533 13.998969 -6.472064 -32.791715 -5.313762 -1.468179 -3.110277 14.953184 -6.553612 -1.737222 169.295070 -64.424122 166.817126 -12.853977 9.290046 -2.571272 12.596494 -39.043954 -2.855782 -5.926939 67.292176 -5.280094 4.889929 6.700347 6.575158 -0.200713 0.128281 -0.067328 -4.958279 -45.148863 5.587966 29.617625 58.706111 28.499916 -10.057051 43.062420 3.580522 0.879287 -22.751122 -8.090804
-19.126017 57.810108 71.867190 170.684293 -32.779534 -0.536679 4.342285 18.176531 6.877994 0.341462 2.214110 0.600402 0.748876 3.731506 0.944757 3.393753 15.925620 4.666549 0.175270 16.913110 -5.284870 2.131492 -4.203526 -9.836204 3.619795 -3.830783 -1.443308 12.983836 -17.302290 -14.932495 -67.835373 -85.546020 102.151781 13.947595 -6.342039 -32.549160 -5.276033 -1.453132 -3.084126 15.263826 -6.473759 -1.579735 168.310102 -65.169677 167.436110 -13.200433 10.267998 -5.560310 12.613605 -38.995231 -2.897047 -5.912103 67.256617 -5.316514 5.013506 6.602153 6.684357 -0.314779 0.206909 -0.120020 -4.894400 -45.121189 5.526815 29.592663 58.687860 28.473910 -10.062599 43.013439 3.588369 0.885961 -22.702141 -8.090841
-19.122066 57.807902 71.878762 170.671469 -32.774251 -0.578180 4.302943 18.146424 6.924666 0.366991 2.226970 0.593930 0.704497 3.700777 0.955617 3.342748 15.927030 4.686446 0.245316 16.877021 -5.335097 2.280645 -4.261044 -9.955096 3.707616 -3.822524 -1.509269 12.889479 -17.218811 -14.890736 -67.666484 -85.544288 102.091896 13.886580 -6.231246 -32.354623 -5.251622 -1.480975 -3.060989 15.569386 -6.353532 -1.392571 167.065942 -66.010629 168.294243 -13.367505 11.092826 -8.404671 12.564775 -38.884313 -2.824417 -5.886152 67.069006 -5.326686 5.110490 6.349858 6.777100 -0.430795 0.492825 -0.175534 -4.889184 -45.100557 5.570042 29.541279 58.665149 28.439414 -10.044005 42.927238 3.617081 0.879891 -22.616343 -8.103289
-19.124018 57.806700 71.887848 170.669382 -32.777584 -0.595758 4.188238 18.136352 6.945122 0.387406 2.234959 0.586499 0.716557 3.684570 0.949327 3.286806 15.943533 4.705774 0.311467 16.825770 -5.389362 2.425356 -4.346593 -10.081033 3.821167 -3.803157 -1.590053 12.800506 -17.169901 -14.843902 -67.509541 -85.525372 102.008128 13.822784 -6.124545 -32.203747 -5.249641 -1.560806 -3.041512 15.850897 -6.187060 -1.173298 165.083338 -66.981092 169.839236 -13.391524 11.808184 -11.063677 12.522972 -38.876951 -2.769621 -5.919168 67.038152 -5.400529 5.126445 6.347262 6.799121 -0.442031 0.490081 -0.183668 -4.900156 -45.092279 5.592330 29.534276 58.660851 28.433206 -10.032791 42.887195 3.635337 0.877434 -22.577807 -8.113886
-19.129896 57.804782 71.897198 170.642759 -32.768661 -0.584537 4.118127 18.139992 6.951618 0.378587 2.235433 0.589971 0.722876 3.667141 0.939280 3.240543 15.971774 4.729472 0.371913 16.759482 -5.448727 2.562721 -4.459923 -10.215544 3.900148 -3.920016 -1.646798 12.791868 -17.010318 -14.800520 -66.872420 -85.393382 101.401092 13.857475 -6.039668 -32.109685 -5.279102 -1.689459 -3.024267 16.106041 -5.991422 -0.916988 161.746042 -68.082864 172.662199 -13.355534 12.433151 -13.510254 12.536517 -38.883659 -2.760550 -5.942422 67.015180 -5.437441 5.122384 6.346863 6.805394 -0.432844 0.500104 -0.183857 -4.870299 -45.092168 5.587923 29.504484 58.650031 28.404511 -10.003378 42.861797 3.666679 0.873312 -22.546966 -8.128088
-19.137474 57.804323 71.903461 170.633017 -32.770002 -0.576013 4.055205 18.166926 6.957453 0.408331 2.225397 0.575352 0.610930 3.691481 0.995098 3.249474 15.985436 4.711800 0.423866 16.685024 -5.512306 2.686609 -4.588583 -10.355695 3.999493 -4.023759 -1.713383 12.797603 -16.894819 -14.762498 -66.528053 -85.291030 101.052343 13.852335 -5.942083 -32.079809 -5.342112 -1.856110 -3.006918 16.337935 -5.797712 -0.619246 156.430628 -69.228114 177.366934 -13.357100 12.983036 -15.744402 12.545332 -38.881392 -2.766000 -5.948608 67.002981 -5.451287 5.122533 6.354471 6.810004 -0.429306 0.495963 -0.182867 -4.850831 -45.084953 5.557023 29.503355 58.633275 28.418853 -9.966313 42.836254 3.697470 0.855317 -22.517643 -8.144438
-19.143136 57.804492 71.908302 170.631391 -32.772240 -0.587109 3.995483 18.203546 6.984666 0.435201 2.209295 0.556985 0.549045 3.730099 1.037297 3.223100 16.000465 4.719625 0.465821 16.608844 -5.578150 2.793114 -4.720960 -10.496842 4.100965 -4.123981 -1.781610 12.823290 -16.811720 -14.728768 -66.295097 -85.218416 100.792566 13.816913 -5.855963 -32.115398 -5.426689 -2.043491 -2.984962 16.539594 -5.638955 -0.280673 148.868204 -70.213072 -175.783457 -13.428718 13.489481 -17.783691 12.537218 -38.881369 -2.755230 -5.935928 66.992997 -5.440303 5.115852 6.371049 6.807779 -0.424736 0.484091 -0.180424 -4.862922 -45.079999 5.567901 29.488318 58.631509 28.410620 -9.962294 42.820159 3.689740 0.860249 -22.497486 -8.145986
-19.149801 57.804593 71.911901 170.616803 -32.769770 -0.587926 3.979346 18.220104 7.002498 0.395879 2.227442 0.578518 0.547042 3.748651 1.048827 3.180875 16.023862 4.742055 0.498042 16.531378 -5.645699 2.882448 -4.856342 -10.638043 4.195119 -4.226403 -1.844883 12.868935 -16.748631 -14.700281 -66.054747 -85.148456 100.511925 13.782366 -5.808716 -32.201021 -5.516693 -2.234276 -2.958761 16.701006 -5.540954 0.102402 139.462378 -70.801463 -167.180500 -13.516521 13.950587 -19.573740 12.554681 -38.888126 -2.763955 -5.911027 66.988638 -5.401607 5.105620 6.390541 6.799595 -0.417123 0.472060 -0.176766 -4.863399 -45.079569 5.575624 29.475110 58.629183 28.402770 -9.963401 42.812572 3.679832 0.874513 -22.480260 -8.151188
-19.158248 57.804719 71.913602 170.601832 -32.765997 -0.578627 3.928618 18.268250 7.033109 0.356468 2.258335 0.606618 0.585124 3.728100 1.021611 3.140730 16.046786 4.765609 0.520760 16.452854 -5.714563 2.954898 -4.994314 -10.778680 4.279516 -4.313064 -1.917863 12.920787 -16.721326 -14.663106 -65.836169 -85.077485 100.249255 13.750979 -5.810757 -32.330922 -5.606963 -2.413754 -2.932859 16.821092 -5.519962 0.537798 129.226032 -70.822133 -157.818814 -13.544662 14.308819 -20.992613 12.594523 -38.896140 -2.796185 -5.897914 66.991153 -5.364785 5.099492 6.409225 6.793284 -0.409994 0.456773 -0.173523 -4.866382 -45.081909 5.572687 29.496064 58.623071 28.418337 -9.958765 42.808262 3.689003 0.870089 -22.470934 -8.159773
